<?xml version="1.0" encoding="utf-8"?>
<!-- Generator: Adobe Illustrator 16.0.0, SVG Export Plug-In . SVG Version: 6.00 Build 0)  -->
<!DOCTYPE svg PUBLIC "-//W3C//DTD SVG 1.1//EN" "http://www.w3.org/Graphics/SVG/1.1/DTD/svg11.dtd">
<svg version="1.1" id="Capa_1" xmlns="http://www.w3.org/2000/svg" xmlns:xlink="http://www.w3.org/1999/xlink" x="0px" y="0px"
	 width="512px" height="512px" viewBox="0 0 512 512" enable-background="new 0 0 512 512" xml:space="preserve">
<g>
	<g>
		<path fill="#FFFFFF" d="M503.384,343.391c-5.738-5.742-12.717-8.615-20.919-8.615H339.691l-41.846,41.845
			C285.947,388.105,272,393.851,256,393.851c-15.997,0-29.949-5.738-41.846-17.23l-41.539-41.845H29.538
			c-8.204,0-15.178,2.876-20.923,8.615C2.871,349.133,0,356.107,0,364.316v98.458c0,8.206,2.871,15.18,8.615,20.923
			c5.744,5.742,12.718,8.611,20.923,8.611h452.928c8.202,0,15.181-2.869,20.919-8.611c5.746-5.743,8.615-12.717,8.615-20.923
			v-98.458C512,356.107,509.131,349.133,503.384,343.391z M388.006,447.082c-3.902,3.898-8.52,5.846-13.854,5.846
			s-9.944-1.947-13.846-5.846c-3.895-3.898-5.842-8.512-5.842-13.842c0-5.333,1.947-9.954,5.842-13.846
			c3.901-3.901,8.512-5.854,13.846-5.854s9.949,1.952,13.854,5.854c3.893,3.891,5.842,8.512,5.842,13.846
			C393.848,438.569,391.898,443.184,388.006,447.082z M466.77,447.082c-3.896,3.898-8.512,5.846-13.847,5.846
			c-5.333,0-9.946-1.947-13.846-5.846c-3.894-3.898-5.841-8.512-5.841-13.842c0-5.333,1.947-9.954,5.841-13.846
			c3.898-3.901,8.512-5.854,13.846-5.854s9.95,1.952,13.847,5.854c3.897,3.891,5.849,8.512,5.849,13.846
			C472.618,438.569,470.671,443.184,466.77,447.082z"/>
		<path display="none" fill="#FFFFFF" d="M242.155,348.619c3.694,3.895,8.309,5.843,13.845,5.843c5.541,0,10.15-1.948,13.846-5.843
			l137.848-137.848c6.357-5.948,7.796-13.129,4.308-21.54c-3.481-7.998-9.534-11.997-18.153-12.001h-78.771V39.384
			c0-5.333-1.951-9.949-5.842-13.846c-3.902-3.898-8.516-5.848-13.846-5.848h-78.777c-5.331,0-9.946,1.95-13.846,5.848
			c-3.896,3.897-5.846,8.512-5.846,13.846v137.848h-78.769c-8.62,0-14.668,4.003-18.155,12.001
			c-3.485,8.407-2.051,15.591,4.31,21.539L242.155,348.619z"/>
	</g>
</g>
</svg>
