<?xml version="1.0" encoding="utf-8"?>
<!-- Generator: Adobe Illustrator 16.0.0, SVG Export Plug-In . SVG Version: 6.00 Build 0)  -->
<!DOCTYPE svg PUBLIC "-//W3C//DTD SVG 1.1//EN" "http://www.w3.org/Graphics/SVG/1.1/DTD/svg11.dtd">
<svg version="1.1" xmlns="http://www.w3.org/2000/svg" xmlns:xlink="http://www.w3.org/1999/xlink" x="0px" y="0px" width="512px"
	 height="512px" viewBox="0 0 512 512" enable-background="new 0 0 512 512" xml:space="preserve">
<g id="Calque_2" display="none">
	<rect x="-46.5" y="-36.5" display="inline" fill="#FFD6A9" width="623" height="613"/>
</g>
<g id="Capa_1">
	<g>
		<g>
			<path fill="#FFFFFF" d="M70.847,276.711h274.25c11.45,0,20.756-9.313,20.756-20.742c0-11.449-9.306-20.755-20.756-20.755H70.855
				l39.991-39.977c8.056-8.09,8.056-21.24-0.042-29.371c-3.926-3.892-9.127-6.043-14.658-6.043s-10.737,2.151-14.672,6.07
				l-75.272,75.28c-1.957,1.916-3.512,4.196-4.674,6.982C0.519,250.68,0,253.313,0,255.962c0,2.668,0.511,5.303,1.584,7.931
				c1.071,2.62,2.634,4.923,4.494,6.734l75.383,75.403c3.914,3.927,9.127,6.077,14.672,6.077c5.531,0,10.744-2.157,14.698-6.091
				c8.034-8.076,8.048-21.22-0.02-29.343L70.847,276.711z"/>
			<path display="none" fill="#FFFFFF" d="M442.86,70.218H209.583c-38.117,0-69.126,31.022-69.126,69.146l0.028,61.438
				c0.255,11.173,9.548,20.271,20.721,20.271c6.783,0,12.861-3.347,16.656-8.47l4.093-0.063v-73.171
				c0-15.245,12.396-27.649,27.627-27.649H442.86c15.23,0,27.635,12.404,27.635,27.649v233.263
				c0,15.245-12.404,27.649-27.635,27.649H209.583c-15.231,0-27.627-12.404-27.627-27.649l-0.048-73.364h-4.045
				c-3.754-5.088-9.791-8.352-16.656-8.352c-11.297,0-20.403,8.878-20.749,20.756v60.96c0,38.124,31.009,69.146,69.126,69.146
				H442.86c38.123,0,69.14-31.022,69.14-69.146V139.372C512,101.241,480.983,70.218,442.86,70.218z"/>
		</g>
	</g>
</g>
</svg>
